<?xml version="1.0" encoding="utf-8"?>
<!-- Generator: Adobe Illustrator 23.0.3, SVG Export Plug-In . SVG Version: 6.00 Build 0)  -->
<svg version="1.1" id="Capa_1" xmlns="http://www.w3.org/2000/svg" xmlns:xlink="http://www.w3.org/1999/xlink" x="0px" y="0px"
	 viewBox="0 0 73 45" style="enable-background:new 0 0 73 45;" xml:space="preserve">
<path d="M71.5,3C59.5,3,52.9,6,52.6,6.1c-0.4,0.2-0.7,0.5-0.8,0.9c-0.1,0.4-0.1,0.7,0.1,1.1c-2.3-0.9-5.5-2.1-8.7-3.5
	C37.7,2.2,34.2,3,30.3,6H18.1c0.1-0.5,0.1-0.9,0.2-1.4c0-0.5-0.1-0.9-0.5-1.2C15.2,1,4.7,0.2,1.6,0C1.2,0,0.8,0.1,0.5,0.4
	C0.2,0.7,0,1.1,0,1.5v27C0,29.3,0.7,30,1.5,30h9.1c0.7,0,1.2-0.4,1.4-1c0-0.1,0.2-0.5,0.4-1.1c0.3,0.4,0.7,0.7,1.1,1.2
	c1.4,1.4,2.8,2.8,3.7,3.6c5.7,4.7,12.5,9.7,13.8,10.6c1.1,0.7,3.5,1.7,5.4,1.7c1.5,0,2.7-0.3,3.5-1c1.1,0.4,2.3,0.4,3.5,0
	c1.4-0.5,2.5-1.6,3.2-2.9c1.2,0.3,2.6,0.1,3.8-0.5c1.2-0.6,2.1-1.5,2.5-2.6c1.2,0.1,2.5-0.4,3.5-1.2c1.4-1.2,2-2.9,1.6-4.5l2.4-1.6
	c0.2,0.5,0.3,1,0.4,1.4c0.2,0.7,0.8,1.1,1.5,1.1h9.1c0.8,0,1.5-0.7,1.5-1.5v-27C73,3.7,72.3,3,71.5,3z M9.5,27H3V3.1
	c4.9,0.4,10.2,1.2,12.1,2.1C14.3,11.8,10.7,23.5,9.5,27z M54.4,34.4c-0.6,0.5-1.4,0.7-1.8,0.4c-1.2-0.9-5.9-5.8-8.9-8.8
	c-0.6-0.6-1.5-0.6-2.2,0c-0.6,0.6-0.6,1.5,0,2.1c0.7,0.7,6.4,6.6,8.7,8.6c-0.2,0.7-0.8,1-1.1,1.2c-1,0.5-2,0.4-2.4,0.1c0,0,0,0,0,0
	c0,0,0,0-0.1-0.1c-1.8-1.4-6.4-6.2-7.4-7.3c-0.6-0.6-1.5-0.6-2.2-0.1c-0.6,0.6-0.7,1.5-0.1,2.1c0,0.1,4.5,4.8,7,7
	c-0.3,0.7-0.9,1.3-1.6,1.6c-0.5,0.2-1.1,0.3-1.7-0.3c0,0,0,0,0,0c0,0,0,0,0,0c-2.2-1.8-6.6-6.5-7.5-7.4c-0.6-0.6-1.5-0.6-2.2-0.1
	c-0.6,0.6-0.6,1.5-0.1,2.1c1,1.1,4.1,4.3,6.4,6.4c-0.2,0-0.4,0-0.7,0c-1,0-2.8-0.7-3.7-1.3c-1.1-0.7-7.8-5.6-13.5-10.4
	c-0.8-0.7-2.2-2.1-3.5-3.4c-0.9-0.9-1.8-1.8-2.3-2.3c1.3-4.1,3.1-10.5,4.1-15.6h9.3c-2.1,2.1-4.9,6.2-4.1,9.2
	c0.3,1.3,1.2,2.3,2.6,2.7c3.4,1.1,6.6,0,8.9-3c1-0.1,1.5-0.4,2.3-0.7c0.3-0.1,0.6-0.3,1.1-0.5c1.7,1.6,4.1,3.5,6.6,5.5
	c4.5,3.6,9.5,7.6,10.7,10C55.5,33.3,54.9,34.1,54.4,34.4z M56.7,29.4c-2.1-2.8-6.4-6.2-10.6-9.5c-2.8-2.2-5.4-4.3-7-5.9
	c-0.4-0.4-1-0.5-1.6-0.4c-1,0.4-1.7,0.6-2.2,0.9c-0.8,0.3-1,0.5-2,0.6c-0.5,0-0.9,0.3-1.1,0.7c-2.2,3.2-4.4,2.9-5.9,2.4
	c-0.5-0.2-0.6-0.4-0.6-0.5c-0.3-1.3,1.3-4.4,3.4-6.4C34,6.2,36.6,5,42,7.4c5.1,2.3,10.2,4.1,11.8,4.6c1.8,4.3,4.2,10.9,5.8,15.6
	L56.7,29.4z M70,30h-6.5c-1.4-4.6-5.7-16.7-8.1-21.7C57.7,7.5,62.7,6.2,70,6V30z"/>
</svg>
