<?xml version="1.0" encoding="utf-8"?>
<!-- Generator: Adobe Illustrator 23.0.3, SVG Export Plug-In . SVG Version: 6.00 Build 0)  -->
<svg version="1.1" id="Capa_1" xmlns="http://www.w3.org/2000/svg" xmlns:xlink="http://www.w3.org/1999/xlink" x="0px" y="0px"
	 viewBox="0 0 70 70" style="enable-background:new 0 0 70 70;" xml:space="preserve">
<g>
	<path d="M48.1,55.7l-7.4-1.3v-0.6c1.3-0.8,2.5-1.8,3.4-3h2.3c1.9,0,3.4-1.5,3.4-3.4V30.6c0-3.2-2.1-5.9-5.1-6.8l-0.6-0.6
		c-2.6-2.6-6.1-4.1-9.8-4.1c-7.7,0-13.9,6.2-13.9,13.9v8.7c0,2.2,1.5,4,3.6,4.4c0.6,3.2,2.7,6,5.4,7.6v0.6l-7.4,1.3
		c-2.9,0.5-5.3,2.6-6.2,5.5L13.2,70h43.7l-2.6-8.8C53.4,58.4,51,56.3,48.1,55.7z M47.4,47.4c0,0.6-0.5,1.1-1.1,1.1h-0.9
		c0.3-0.7,0.6-1.5,0.7-2.4c0.5-0.1,0.9-0.3,1.3-0.5V47.4z M46.3,43.7v-3.9c0.7,0.4,1.1,1.1,1.1,1.9C47.4,42.6,47,43.3,46.3,43.7z
		 M23.7,43.7c-0.7-0.4-1.1-1.1-1.1-1.9c0-0.8,0.5-1.6,1.1-1.9V43.7z M23.7,36.1v1.3c-0.4,0.1-0.8,0.3-1.1,0.5v-4.8
		c0-6.4,5.2-11.6,11.6-11.6c3.1,0,6,1.2,8.2,3.4l1,1l0.3,0.1c2.2,0.5,3.7,2.5,3.7,4.7v7.3c-0.4-0.2-0.7-0.4-1.1-0.5v-1.3h-3.6
		c-3.1,0-6-1.5-7.8-3.9L34,31l-2.2,2.2c-1.8,1.8-4.3,2.9-6.9,2.9H23.7z M26,44v-5.7c2.8-0.3,5.4-1.5,7.4-3.5l0.4-0.4
		c2.3,2.5,5.5,4,8.9,4H44V44c0,1.6-0.4,3.2-1.2,4.5H35v2.3h6c-1.6,1.4-3.7,2.3-6,2.3C30,53.1,26,49,26,44z M31.7,54.8
		c1,0.3,2.1,0.5,3.3,0.5s2.2-0.2,3.3-0.5L35,57.3L31.7,54.8z M33.3,58.8L31,61.1l-1.5-4.5l0.7-0.1L33.3,58.8z M39.8,56.5l0.7,0.1
		L39,61.1l-2.3-2.3L39.8,56.5z M16.2,67.7l1.8-5.9c0.6-2,2.3-3.6,4.4-3.9l4.9-0.9l2.8,8.3l5-5l5,5l2.8-8.3l4.9,0.9
		c2.1,0.4,3.8,1.9,4.4,3.9l1.8,5.9H16.2z"/>
	<path d="M18.4,20.3h5.3c1.9,0,3.4-1.5,3.4-3.4V3.4c0-1.9-1.5-3.4-3.4-3.4H3.4C1.5,0,0,1.5,0,3.4v13.5c0,1.9,1.5,3.4,3.4,3.4h5.3
		l10.9,8.2L18.4,20.3z M9.4,18.1h-6c-0.6,0-1.1-0.5-1.1-1.1V3.4c0-0.6,0.5-1.1,1.1-1.1h20.3c0.6,0,1.1,0.5,1.1,1.1v13.5
		c0,0.6-0.5,1.1-1.1,1.1h-7.9l0.8,5.4L9.4,18.1z"/>
	<rect x="4.5" y="4.5" width="18.1" height="2.3"/>
	<rect x="4.5" y="13.5" width="13.5" height="2.3"/>
	<path d="M66.6,17.7c2.2-1.9,3.4-4.7,3.4-7.6C70,4.6,65.4,0,59.8,0S49.7,4.6,49.7,10.2c0,2.9,1.2,5.6,3.4,7.6v1.5h-2.3v2.3h2.3V26
		h13.5v-4.5h2.3v-2.3h-2.3V17.7z M64.4,23.7h-9v-2.3h9V23.7z M58.7,10.2c0-0.6,0.5-1.1,1.1-1.1c0.6,0,1.1,0.5,1.1,1.1
		c0,0.6-0.5,1.1-1.1,1.1C59.2,11.3,58.7,10.8,58.7,10.2z M64.8,16.3l-0.4,0.3v2.5H61v-5.9c1.3-0.5,2.3-1.7,2.3-3.2
		c0-1.9-1.5-3.4-3.4-3.4c-1.9,0-3.4,1.5-3.4,3.4c0,1.5,0.9,2.7,2.3,3.2v5.9h-3.4v-2.5l-0.4-0.3c-1.9-1.5-3-3.8-3-6.2
		c0-4.4,3.5-7.9,7.9-7.9c4.4,0,7.9,3.5,7.9,7.9C67.7,12.6,66.7,14.8,64.8,16.3z"/>
	<rect x="4.5" y="9" width="18.1" height="2.3"/>
	<rect x="20.3" y="13.5" width="2.3" height="2.3"/>
</g>
</svg>
