<?xml version="1.0" encoding="utf-8"?>
<!-- Generator: Adobe Illustrator 23.0.3, SVG Export Plug-In . SVG Version: 6.00 Build 0)  -->
<svg version="1.1" id="Capa_1" xmlns="http://www.w3.org/2000/svg" xmlns:xlink="http://www.w3.org/1999/xlink" x="0px" y="0px"
	 viewBox="0 0 60 59" style="enable-background:new 0 0 60 59;" xml:space="preserve">
<g>
	<path d="M59.1,15.5C59.1,15.5,59.1,15.5,59.1,15.5L59.1,15.5l-3.9-0.5c-0.5-0.1-0.9-0.6-0.8-1.1c0-0.3,0.2-0.5,0.4-0.6l3.1-2.3
		c0.4-0.3,0.5-0.9,0.2-1.4l-3.6-4.7c-0.3-0.4-1-0.5-1.4-0.2L50,6.9c-0.4,0.3-1.1,0.2-1.4-0.2c-0.2-0.2-0.2-0.5-0.2-0.7L49,2.2
		c0.1-0.5-0.3-1-0.8-1.1c0,0,0,0,0,0l-5.9-0.8c-0.5-0.1-1,0.3-1.1,0.8c0,0,0,0,0,0l-0.6,3.8c-0.1,0.5-0.6,0.9-1.1,0.8
		c-0.3,0-0.5-0.2-0.7-0.4l-2.3-3.1c-0.3-0.4-1-0.5-1.4-0.2l-3,2.2c-1.4-0.1-2.7-0.1-4.1,0c-8.9,1-15.8,7.9-16.7,16.7
		c0,0.3,0,0.6-0.1,0.8H11c-0.5,0-0.9,0.3-1,0.8l-0.7,3.2l-2.8-1.9c-0.4-0.3-0.9-0.2-1.3,0.1l-3,2.9c-0.3,0.3-0.4,0.9-0.1,1.2
		l1.9,2.7l-3.3,0.7c-0.5,0.1-0.8,0.5-0.8,1v3.9c0,0.5,0.3,0.9,0.8,1l3.3,0.7l-1.9,2.7c-0.3,0.4-0.2,0.9,0.1,1.2l3,2.9
		c0.3,0.3,0.9,0.4,1.3,0.1l2.8-1.9l0.7,3.2c0.1,0.5,0.5,0.8,1,0.8h4c0.5,0,0.9-0.3,1-0.8l0.7-3.2l2.8,1.9c0.4,0.3,0.9,0.2,1.3-0.1
		l1.5-1.5v2.8c0,1.4,0.8,2.7,2,3.4v5.4c0,2.2,1.8,3.9,4,3.9h4c2.2,0,4-1.8,4-3.9v-5.4c1.2-0.7,2-2,2-3.4v-3.9c0-1.6,0.9-3.1,2.3-4
		c0.8-0.5,1.6-1.1,2.3-1.8l-1.3-1.5c-0.7,0.6-1.4,1.1-2.1,1.6c-2,1.2-3.2,3.3-3.2,5.6v3.9c0,1.1-0.9,2-2,2h-8c-1.1,0-2-0.9-2-2v-4
		c0-2.3-1.2-4.3-3.2-5.5c-7.9-4.9-10.3-15.1-5.3-22.9c3.1-4.8,8.4-7.7,14.2-7.8c0,0,0,0.1,0,0.1c0,0.3,0,0.5,0.2,0.7l2.3,3.1
		c0.2,0.3,0.3,0.7,0.1,1.1c-0.2,0.3-0.6,0.5-1,0.5l-3.9-0.5c-0.5-0.1-1,0.3-1.1,0.8c0,0,0,0,0,0l-0.8,5.8c-0.1,0.5,0.3,1,0.8,1.1
		c0,0,0,0,0,0l3.9,0.5c0.5,0.1,0.9,0.6,0.8,1.1c0,0.3-0.2,0.5-0.4,0.6l-3.1,2.3c-0.4,0.3-0.5,0.9-0.2,1.4l3.6,4.7
		c0.3,0.4,1,0.5,1.4,0.2l3.1-2.3c0.4-0.3,1.1-0.2,1.4,0.2c0.2,0.2,0.2,0.5,0.2,0.7l-0.6,3.8c-0.1,0.5,0.3,1,0.8,1.1c0,0,0,0,0,0
		l5.9,0.8c0,0,0.1,0,0.1,0c0.5,0,0.9-0.4,1-0.8l0.6-3.8c0.1-0.5,0.6-0.9,1.1-0.8c0.3,0,0.5,0.2,0.7,0.4l2.3,3.1
		c0.3,0.4,1,0.5,1.4,0.2l4.8-3.5c0.4-0.3,0.5-0.9,0.2-1.4l-2.3-3.1c-0.2-0.3-0.3-0.7-0.1-1.1c0.2-0.3,0.6-0.5,1-0.5l3.9,0.5
		c0.5,0.1,1-0.3,1.1-0.8c0,0,0,0,0,0l0.8-5.8C60.1,16.1,59.7,15.6,59.1,15.5z M26.1,50.2h8v2h-8V50.2z M26.1,54.1h8v1
		c0,1.1-0.9,2-2,2h-4c-1.1,0-2-0.9-2-2V54.1z M18.2,37.2c0.5,0.4,1.1,0.8,1.7,1.2c0.9,0.6,1.6,1.5,2,2.5L19.8,43l-2.1-1.4
		c-0.9-0.6-2.1-0.4-2.8,0.5c-0.1,0.2-0.3,0.5-0.3,0.7l-0.5,2.4h-2.4l-0.5-2.4c-0.2-1.1-1.3-1.7-2.4-1.5c-0.3,0.1-0.5,0.2-0.7,0.3
		L6.1,43l-1.8-1.8l1.4-2c0.6-0.9,0.4-2.1-0.5-2.7c-0.2-0.1-0.5-0.3-0.7-0.3L2,35.7v-2.3l2.5-0.5c1.1-0.2,1.8-1.3,1.5-2.3
		C6,30.3,5.8,30,5.7,29.8l-1.4-2L6.1,26l2.1,1.4c0.9,0.6,2.1,0.4,2.8-0.5c0.1-0.2,0.3-0.5,0.3-0.7l0.2-0.8c0.2,1.1,0.4,2.2,0.8,3.3
		C8.9,29.1,6.6,32,7,35.2c0.4,3.2,3.4,5.5,6.6,5.1C15.6,40.1,17.3,39,18.2,37.2z M16.7,35.8c-0.7,2-3,3.1-5.1,2.4
		c-2.1-0.7-3.1-3-2.4-5c0.6-1.6,2.1-2.6,3.7-2.6c0,0,0,0,0,0C13.9,32.5,15.1,34.3,16.7,35.8z M57.3,21.2l-2.9-0.4
		c-1.6-0.2-3.1,0.9-3.4,2.5c-0.1,0.8,0.1,1.6,0.6,2.2l1.7,2.3l-3.2,2.4l-1.8-2.3c-1-1.3-2.9-1.6-4.2-0.6c-0.6,0.5-1.1,1.2-1.2,1.9
		L42.7,32l-3.9-0.6l0.4-2.8c0.2-1.6-0.9-3.1-2.5-3.3c-0.8-0.1-1.6,0.1-2.2,0.6l-2.3,1.7l-2.4-3.1l2.3-1.7c1.3-1,1.6-2.8,0.6-4.1
		c-0.5-0.6-1.2-1-2-1.1L27.7,17l0.6-3.9l2.9,0.4c1.6,0.2,3.1-0.9,3.4-2.5c0.1-0.8-0.1-1.6-0.6-2.2l-1.8-2.3l3.2-2.3l1.8,2.3
		c1,1.3,2.9,1.6,4.2,0.6c0.6-0.5,1.1-1.2,1.2-1.9L43,2.3l3.9,0.6l-0.4,2.8C46.2,7.3,47.4,8.8,49,9c0.8,0.1,1.6-0.1,2.2-0.6l2.3-1.7
		l2.4,3.1l-2.3,1.7c-1.3,1-1.6,2.8-0.6,4.1c0.5,0.6,1.2,1,2,1.1l2.9,0.4L57.3,21.2z"/>
	<path d="M42.8,9.3c-4.4,0-8,3.5-8,7.8c0,4.3,3.6,7.8,8,7.8s8-3.5,8-7.8C50.8,12.8,47.2,9.3,42.8,9.3z M42.8,23c-3.3,0-6-2.6-6-5.9
		c0-3.2,2.7-5.9,6-5.9c3.3,0,6,2.6,6,5.9C48.8,20.4,46.1,23,42.8,23z"/>
	<rect x="49" y="36.5" width="7" height="2"/>
	<polygon points="47.4,43.1 53.4,48 54.7,46.5 48.7,41.6 	"/>
	<rect x="43.1" y="44.3" width="2" height="6.9"/>
	<polygon points="9.5,16.9 9,15 1,16.9 1.5,18.8 	"/>
	<polygon points="10.8,10.2 3.8,5.3 2.7,6.9 9.6,11.8 	"/>
	<polygon points="15.2,7.8 13.1,0 11.2,0.5 13.2,8.3 	"/>
</g>
</svg>
